<svg width="82" height="78" viewBox="0 0 82 78" fill="none" xmlns="http://www.w3.org/2000/svg">
<ellipse cx="34.3186" cy="32.5" rx="34.3186" ry="32.5" fill="#EA3D3C" fill-opacity="0.3"/>
<path d="M63.9843 30.75C67.4288 30.75 70.221 28.1057 70.221 24.8438C70.221 21.5818 67.4288 18.9375 63.9843 18.9375C60.5398 18.9375 57.7476 21.5818 57.7476 24.8438C57.7476 28.1057 60.5398 30.75 63.9843 30.75Z" stroke="#25373F" stroke-width="3" stroke-miterlimit="10" stroke-linecap="round" stroke-linejoin="round"/>
<path d="M49.4304 30.75L38.451 43.0376C37.9284 43.6227 37.5474 44.309 37.3347 45.0484C37.1221 45.7878 37.0829 46.5623 37.22 47.3176C37.3571 48.0728 37.6672 48.7905 38.1283 49.4201C38.5895 50.0498 39.1907 50.5763 39.8896 50.9625L49.4928 56.2676C49.6596 56.3606 49.804 56.4857 49.9167 56.6348C50.0294 56.7838 50.1079 56.9536 50.147 57.1332C50.1862 57.3127 50.1852 57.498 50.1441 57.6772C50.1031 57.8563 50.0228 58.0254 49.9086 58.1734L39.7288 71.4375" stroke="#25373F" stroke-width="3" stroke-miterlimit="10" stroke-linecap="round" stroke-linejoin="round"/>
<path d="M28.6428 34.6875L33.6322 27.6C33.794 27.3696 34.0285 27.1935 34.3023 27.0968C34.5761 27.0002 34.8752 26.9879 35.1568 27.0619L49.432 30.75L60.5195 38.625L66.8949 49.486C67.0518 49.7534 67.3026 49.9606 67.6037 50.0715C67.9049 50.1825 68.2375 50.1903 68.5441 50.0936L75.7649 47.8125" stroke="#25373F" stroke-width="3" stroke-miterlimit="10" stroke-linecap="round" stroke-linejoin="round"/>
<path d="M60.5195 38.625L50.8179 49.4938" stroke="#25373F" stroke-width="3" stroke-miterlimit="10" stroke-linecap="round" stroke-linejoin="round"/>
<path d="M34.1866 55.6875L20.3271 71.4375" stroke="#25373F" stroke-width="3" stroke-miterlimit="10" stroke-linecap="round" stroke-linejoin="round"/>
</svg>
