<svg width="89" height="75" viewBox="0 0 89 75" fill="none" xmlns="http://www.w3.org/2000/svg">
<ellipse cx="34.7483" cy="32.5" rx="34.3186" ry="32.5" fill="#EA3D3C" fill-opacity="0.3"/>
<path d="M55.4713 53.625H30.3923V20.375H80.5503V35.8125" stroke="#25373F" stroke-width="3" stroke-miterlimit="10" stroke-linecap="round" stroke-linejoin="round"/>
<path d="M74.2807 51.25C80.5135 51.25 85.5662 49.1234 85.5662 46.5C85.5662 43.8766 80.5135 41.75 74.2807 41.75C68.0478 41.75 62.9951 43.8766 62.9951 46.5C62.9951 49.1234 68.0478 51.25 74.2807 51.25Z" stroke="#25373F" stroke-width="3" stroke-miterlimit="10" stroke-linecap="round" stroke-linejoin="round"/>
<path d="M62.9951 46.5V53.625C62.9951 56.2482 68.0473 58.375 74.2807 58.375C80.514 58.375 85.5662 56.2482 85.5662 53.625V46.5" stroke="#25373F" stroke-width="3" stroke-miterlimit="10" stroke-linecap="round" stroke-linejoin="round"/>
<path d="M62.9951 53.625V60.75C62.9951 63.3732 68.0473 65.5 74.2807 65.5C80.514 65.5 85.5662 63.3732 85.5662 60.75V53.625" stroke="#25373F" stroke-width="3" stroke-miterlimit="10" stroke-linecap="round" stroke-linejoin="round"/>
<path d="M62.9951 60.75V67.875C62.9951 70.4982 68.0473 72.625 74.2807 72.625C80.514 72.625 85.5662 70.4982 85.5662 67.875V60.75" stroke="#25373F" stroke-width="3" stroke-miterlimit="10" stroke-linecap="round" stroke-linejoin="round"/>
<path d="M55.4714 41.75C58.2415 41.75 60.4872 39.6234 60.4872 37C60.4872 34.3766 58.2415 32.25 55.4714 32.25C52.7012 32.25 50.4556 34.3766 50.4556 37C50.4556 39.6234 52.7012 41.75 55.4714 41.75Z" stroke="#25373F" stroke-width="3" stroke-miterlimit="10" stroke-linecap="round" stroke-linejoin="round"/>
</svg>
