<svg width="81" height="75" viewBox="0 0 81 75" fill="none" xmlns="http://www.w3.org/2000/svg">
<ellipse cx="34.5334" cy="32.5" rx="34.3186" ry="32.5" fill="#EA3D3C" fill-opacity="0.3"/>
<path d="M66.3401 43.7525C66.9447 45.7363 67.268 47.8325 67.268 50C67.268 62.4262 56.6306 72.5 43.509 72.5C30.3874 72.5 19.75 62.4262 19.75 50C19.75 37.5738 30.3874 27.5 43.509 27.5C45.8005 27.5 48.0166 27.8075 50.1127 28.38" stroke="#25373F" stroke-width="3" stroke-miterlimit="10" stroke-linecap="round" stroke-linejoin="round"/>
<path d="M43.509 62.5C50.7989 62.5 56.7085 56.9036 56.7085 50C56.7085 43.0964 50.7989 37.5 43.509 37.5C36.2192 37.5 30.3096 43.0964 30.3096 50C30.3096 56.9036 36.2192 62.5 43.509 62.5Z" stroke="#25373F" stroke-width="3" stroke-miterlimit="10" stroke-linecap="round" stroke-linejoin="round"/>
<path d="M43.509 50L73.8678 21.25" stroke="#25373F" stroke-width="3" stroke-miterlimit="10" stroke-linecap="round" stroke-linejoin="round"/>
<path d="M68.5879 26.25L65.948 18.75L58.0283 26.25L60.6682 33.75L68.5879 36.25L76.5076 28.75L68.5879 26.25Z" stroke="#25373F" stroke-width="3" stroke-miterlimit="10" stroke-linecap="round" stroke-linejoin="round"/>
</svg>
