<svg width="62" height="30" viewBox="0 0 62 30" fill="none" xmlns="http://www.w3.org/2000/svg">
<path d="M4.81375 29.8403L0.49375 0.340332H6.87375L10.0138 28.5003L9.11375 28.4603L14.1138 0.340332H21.8538L26.8338 28.4603L25.9338 28.5003L29.0738 0.340332H35.4538L31.1338 29.8403H21.6138L17.6738 4.64033H18.3138L14.3338 29.8403H4.81375ZM39.1509 29.8403V0.340332H48.6909C50.6643 0.340332 52.4576 0.700331 54.0709 1.42033C55.6976 2.127 57.0909 3.13366 58.2509 4.44033C59.4243 5.73366 60.3243 7.28033 60.9509 9.08033C61.5776 10.8803 61.8909 12.867 61.8909 15.0403C61.8909 17.2137 61.5776 19.207 60.9509 21.0203C60.3243 22.8337 59.4243 24.4003 58.2509 25.7203C57.0909 27.027 55.6976 28.0403 54.0709 28.7603C52.4576 29.4803 50.6643 29.8403 48.6909 29.8403H39.1509ZM45.3909 28.0003L42.5909 25.0403H47.8909C49.3309 25.0403 50.6309 24.6403 51.7909 23.8403C52.9643 23.027 53.8909 21.8737 54.5709 20.3803C55.2509 18.8737 55.5909 17.0937 55.5909 15.0403C55.5909 12.9737 55.2509 11.207 54.5709 9.74033C53.8909 8.26033 52.9643 7.127 51.7909 6.34033C50.6309 5.54033 49.3309 5.14033 47.8909 5.14033H42.5909L45.3909 2.18033V28.0003Z" fill="white"/>
</svg>
